<svg width="22" height="22" viewBox="0 0 22 22" fill="none" xmlns="http://www.w3.org/2000/svg">
<path d="M21.9998 18.9063C22.0045 19.3325 21.8079 19.7358 21.4579 20.0108C20.8344 20.4966 19.4099 21.34 17.1028 21.2116C17.0021 21.2116 16.9398 21.2163 16.8869 21.2391C16.2393 21.4683 14.5175 22 12.4886 22C11.5293 22 10.6229 21.8763 9.79308 21.6379C9.66833 21.6012 9.54846 21.5508 9.4286 21.4775C9.17912 21.3308 8.26314 20.8449 6.91049 20.8449C6.59873 20.8449 6.27739 20.8723 5.96077 20.9229C5.93207 20.9275 5.71129 20.9503 5.37083 20.9503C4.08062 20.9503 0.987003 20.6065 0.15237 17.4165C0.13793 17.3707 -0.365557 15.7299 0.540857 14.254C1.14995 13.2641 2.2291 12.6041 3.7448 12.2879C3.7448 12.2879 4.234 12.1458 4.99185 12.1458C6.03745 12.1458 7.59137 12.4163 9.04961 13.6995C9.18392 13.8187 9.38051 13.8645 9.54839 13.8141C9.90817 13.7087 10.4837 13.5803 11.1599 13.5803C12.2055 13.5803 13.1888 13.8691 14.081 14.4374C14.0905 14.442 14.1241 14.4374 14.129 14.4099L14.4792 9.70751C14.4888 9.63885 14.4792 9.57468 14.4552 9.5105L13.0258 6.67347C13.0162 6.65053 13.0067 6.62759 12.9971 6.60015C12.9684 6.50855 12.8628 6.32518 12.7716 6.32518C12.7525 6.32518 12.6853 6.32967 12.575 6.39384C12.4407 6.47181 12.2297 6.5817 11.9755 6.61379C11.8699 6.62759 11.7453 6.64139 11.5966 6.64139C11.1554 6.64139 10.6757 6.54979 10.1721 6.3709C10.1337 6.3571 10.1003 6.34796 10.0763 6.34347C10.0331 6.33881 9.97552 6.32518 9.90837 6.31138C9.6782 6.2655 9.33286 6.21978 9.17452 6.31138C8.80517 6.5177 8.35441 6.6231 7.84588 6.6231C7.47653 6.6231 7.09293 6.56358 6.75716 6.46732C6.42139 6.36641 6.13364 6.22892 5.9562 6.064C5.71159 5.84405 5.62043 5.54149 5.68759 5.20697C5.77875 4.74397 6.16235 4.28577 6.59401 4.11621C6.73789 4.06118 6.91065 3.99252 7.09279 3.92369C6.53153 3.43758 5.97031 2.73636 6.40682 2.11754C6.4404 2.06717 6.48841 2.02129 6.54113 1.9892C6.54583 1.98455 7.25582 1.53551 7.70659 0.801996C7.90335 0.499588 8.45014 0 9.29426 0C9.62046 0 9.96094 0.0733177 10.3111 0.219949C10.8197 0.33915 13.7645 1.06331 14.8295 2.03955C15.2133 2.43372 16.3691 3.68959 16.4505 4.49623C16.8055 5.58699 17.5248 7.42502 17.9998 7.89254C18.0718 7.9612 18.1292 8.02537 18.1821 8.10334C18.748 8.93291 20.609 11.7334 20.8681 13.1177C20.9927 13.489 21.9616 16.3627 22 18.9067L21.9998 18.9063Z" fill="white"/>
</svg>
