<svg width="1170" height="242" viewBox="0 0 1170 242" fill="none" xmlns="http://www.w3.org/2000/svg">
<g opacity="0.5">
<path d="M1127.73 195.999H1095.19C1094.59 195.997 1094.01 195.756 1093.59 195.328L1091.69 193.429L1128.65 156.553L1129.33 157.228H1129.33C1129.76 157.653 1130 158.231 1130 158.835V193.75C1130 194.35 1129.76 194.924 1129.33 195.345C1128.9 195.768 1128.33 196.003 1127.73 196L1127.73 195.999Z" fill="#DF2151"/>
<path d="M981.823 132.715C981.013 132.449 980.38 131.81 980.123 130.996C979.866 130.182 980.017 129.295 980.53 128.613L991.983 113.233C992.943 111.953 993.498 110.414 993.575 108.817C993.653 107.218 993.249 105.634 992.416 104.267L982.413 87.8665C981.965 87.1401 981.894 86.2421 982.226 85.4563C982.548 84.6816 983.226 84.1132 984.044 83.9316L1002.77 79.4643C1004.32 79.0921 1005.72 78.2648 1006.8 77.0888C1007.88 75.9128 1008.58 74.442 1008.82 72.8635L1011.71 53.875C1011.84 53.0264 1012.37 52.291 1013.13 51.8975C1013.9 51.504 1014.8 51.5007 1015.57 51.8874L1032.71 60.5017L1032.71 60.5028C1034.13 61.2214 1035.74 61.4938 1037.32 61.2865C1038.9 61.0791 1040.39 60.3997 1041.58 59.3369L1055.99 46.6723C1056.63 46.1006 1057.51 45.8753 1058.35 46.067C1059.18 46.2531 1059.86 46.8293 1060.19 47.6129L1067.83 65.2539C1068.45 66.6855 1069.47 67.9052 1070.78 68.7618C1072.08 69.6183 1073.61 70.0745 1075.17 70.0757H1075.35L1094.55 69.6205C1095.39 69.6519 1096.17 70.0331 1096.72 70.6698C1097.23 71.3391 1097.4 72.2169 1097.15 73.0252L1092.62 89.1718H1092.62C1089.53 87.118 1085.87 86.1001 1082.17 86.2649L1070.64 86.8243C1067.97 86.9274 1065.35 87.6314 1062.99 88.8848L1043.52 74.8762C1041.14 73.1644 1038.17 72.4648 1035.27 72.9312C1032.38 73.3975 1029.78 74.9906 1028.05 77.3638C1026.13 79.9893 1025.47 83.3346 1026.26 86.4926C1023.02 86.7404 1020.06 88.4063 1018.16 91.0452C1016.26 93.6841 1015.63 97.026 1016.43 100.175C1013.38 100.352 1010.54 101.822 1008.64 104.216C1006.73 106.611 1005.93 109.704 1006.44 112.722C1006.77 114.648 1007.59 116.457 1008.82 117.976C1006.28 118.892 1004.16 120.704 1002.87 123.07C1001.57 125.438 1001.19 128.197 1001.79 130.827C1002.39 133.458 1003.93 135.78 1006.12 137.354L1021.47 148.411C1022.43 149.104 1023.5 149.639 1024.63 149.993C1027.65 152.843 1030.5 155.299 1033.18 157.413L1010.08 167.533C1009.31 167.808 1008.45 167.702 1007.77 167.247C1007.05 166.792 1006.59 166.017 1006.55 165.165L1005.45 145.991H1005.45C1005.34 144.395 1004.77 142.865 1003.8 141.592C1002.83 140.321 1001.5 139.364 999.988 138.842L981.823 132.715Z" fill="#DF2151"/>
<path d="M1076.49 183.197C1075.89 183.786 1074.94 183.786 1074.35 183.197L1071.36 180.22V180.207L1071.36 180.208C1071.08 179.928 1070.92 179.547 1070.92 179.149C1070.92 178.751 1071.08 178.369 1071.36 178.089L1113.02 136.536C1113.63 135.944 1114.6 135.95 1115.2 136.549L1118.15 139.496C1118.73 140.092 1118.73 141.044 1118.15 141.639C1117.63 142.137 1117.34 142.823 1117.33 143.541C1117.32 144.259 1117.6 144.951 1118.11 145.46C1118.62 145.969 1119.31 146.252 1120.03 146.247C1120.74 146.241 1121.43 145.947 1121.93 145.432C1122.53 144.843 1123.5 144.843 1124.1 145.432L1127.05 148.408C1127.34 148.686 1127.51 149.074 1127.51 149.479C1127.51 149.889 1127.35 150.282 1127.05 150.569L1085.98 191.552L1085.42 192.109H1085.42C1084.81 192.705 1083.84 192.705 1083.23 192.109L1080.29 189.149V189.148C1079.69 188.547 1079.69 187.581 1080.29 186.979C1081.23 185.912 1081.17 184.296 1080.15 183.3C1079.14 182.303 1077.52 182.272 1076.47 183.229L1076.49 183.197ZM1083.92 179.557C1084.97 180.602 1086.66 180.602 1087.71 179.557L1114.49 152.846H1114.49C1115.51 151.795 1115.49 150.124 1114.46 149.091C1113.43 148.058 1111.76 148.044 1110.71 149.058L1083.92 175.768V175.77C1082.88 176.816 1082.88 178.511 1083.92 179.556L1083.92 179.557Z" fill="#DF2151"/>
<path d="M1036.98 145.91C1038.7 143.536 1039.4 140.569 1038.93 137.674C1038.9 137.494 1038.83 137.334 1038.79 137.159C1042.15 137.056 1045.27 135.418 1047.25 132.715C1048.62 130.81 1049.33 128.508 1049.26 126.164C1050.19 126.432 1051.14 126.579 1052.11 126.6L1051.9 129.691C1051.69 133.639 1053.5 137.424 1056.7 139.743C1059.9 142.063 1064.06 142.6 1067.75 141.17C1071.43 139.74 1074.14 136.538 1074.94 132.667L1079.49 110.22H1079.49C1079.75 108.789 1078.82 107.414 1077.39 107.124C1075.97 106.832 1074.57 107.731 1074.24 109.15L1069.68 131.601C1069.37 133.128 1068.51 134.488 1067.26 135.417C1066.01 136.346 1064.46 136.78 1062.91 136.634C1061.29 136.493 1059.79 135.724 1058.72 134.489C1057.66 133.253 1057.12 131.651 1057.23 130.026L1057.68 123.758V123.619L1058.71 107.9V107.858L1058.98 103.776H1058.98C1059.21 100.001 1061.17 96.5452 1064.29 94.4005C1066.23 93.0497 1068.52 92.2851 1070.89 92.1954L1082.43 91.636C1085.68 91.4981 1088.85 92.6606 1091.24 94.8681C1093.64 97.0755 1095.05 100.145 1095.17 103.398L1096.32 121.88C1096.51 125.123 1097.89 128.185 1100.18 130.481L1105.84 136.122L1070.96 170.914L1068.72 168.675C1066.47 166.414 1063.48 165.055 1060.3 164.855C1055.85 164.614 1046.57 162.198 1032.19 149.607V149.606C1034.1 148.847 1035.76 147.566 1036.98 145.909L1036.98 145.91Z" fill="#DF2151"/>
<path d="M1017.31 105.465C1018.65 105.471 1019.94 105.894 1021.02 106.673L1041.32 121.405L1041.32 121.406C1042.68 122.362 1043.6 123.823 1043.87 125.461C1044.12 126.912 1043.78 128.402 1042.92 129.596C1041.99 130.791 1040.64 131.584 1039.14 131.814C1037.65 132.042 1036.12 131.69 1034.88 130.828C1034.74 130.716 1034.63 130.582 1034.48 130.475L1019.11 119.394C1019.05 119.357 1019 119.337 1018.94 119.299L1014.29 115.927V115.928C1012.94 114.97 1012.02 113.508 1011.74 111.867C1011.5 110.417 1011.84 108.929 1012.7 107.735C1013.78 106.279 1015.5 105.433 1017.32 105.466L1017.31 105.465Z" fill="#DF2151"/>
<path d="M1030.59 92.8402L1053.25 109.18L1052.45 121.233H1052.45C1051.2 121.269 1049.97 120.901 1048.95 120.183L1023.84 102.1C1023.59 101.92 1023.36 101.721 1023.14 101.508C1022.18 100.551 1021.59 99.2818 1021.48 97.9286C1021.38 96.5754 1021.76 95.2291 1022.56 94.1337C1023.45 92.8994 1024.8 92.0698 1026.31 91.8277C1027.81 91.5855 1029.35 91.9488 1030.59 92.84L1030.59 92.8402Z" fill="#DF2151"/>
<path d="M1040.41 79.214L1058.54 92.2609V92.262C1055.77 95.1477 1054.06 98.8886 1053.69 102.872L1033.71 88.4775C1033.46 88.297 1033.22 88.0941 1033 87.8688C1031.64 86.4977 1031.06 84.5302 1031.46 82.6378C1031.87 80.7466 1033.2 79.1893 1035.01 78.4977C1036.82 77.8071 1038.85 78.0761 1040.41 79.214L1040.41 79.214Z" fill="#DF2151"/>
<path d="M1015.87 123.677L1031.47 134.986C1031.56 135.053 1031.66 135.096 1031.76 135.16C1032.83 136.086 1033.52 137.383 1033.68 138.793C1033.84 140.202 1033.47 141.622 1032.63 142.767C1031.73 143.997 1030.39 144.822 1028.89 145.063C1027.39 145.306 1025.85 144.943 1024.62 144.056L1009.27 132.999C1008.04 132.115 1007.21 130.777 1006.96 129.28C1006.72 127.784 1007.09 126.252 1007.98 125.025C1008.85 123.811 1010.17 122.99 1011.65 122.74C1013.13 122.49 1014.64 122.829 1015.87 123.686L1015.87 123.677Z" fill="#DF2151"/>
</g>
<g opacity="0.5">
<path d="M42.2735 195.999H74.8068C75.4099 195.997 75.9883 195.756 76.4131 195.328L78.3143 193.429L41.3474 156.553L40.6692 157.228H40.6703C40.241 157.653 40 158.231 40 158.835V193.75C40.0034 194.35 40.2444 194.924 40.6703 195.345C41.0963 195.768 41.6725 196.003 42.2722 196L42.2735 195.999Z" fill="#2ABB75"/>
<path d="M188.177 132.715C188.987 132.449 189.62 131.81 189.877 130.996C190.134 130.182 189.983 129.295 189.47 128.613L178.017 113.233C177.057 111.953 176.502 110.414 176.425 108.817C176.347 107.218 176.751 105.634 177.584 104.267L187.587 87.8665C188.035 87.1401 188.106 86.2421 187.774 85.4563C187.452 84.6816 186.774 84.1132 185.956 83.9316L167.231 79.4643C165.68 79.0921 164.277 78.2648 163.198 77.0888C162.121 75.9128 161.419 74.442 161.184 72.8635L158.288 53.875C158.159 53.0264 157.63 52.291 156.867 51.8975C156.104 51.504 155.198 51.5007 154.431 51.8874L137.29 60.5017L137.291 60.5028C135.866 61.2214 134.259 61.4938 132.677 61.2865C131.095 61.0791 129.612 60.3997 128.423 59.3369L114.013 46.6723C113.371 46.1006 112.492 45.8753 111.653 46.067C110.825 46.2531 110.138 46.8293 109.81 47.6129L102.169 65.2539C101.55 66.6855 100.525 67.9052 99.2217 68.7618C97.918 69.6183 96.3924 70.0745 94.8331 70.0757H94.6482L75.4496 69.6205C74.6122 69.6519 73.8276 70.0331 73.2828 70.6698C72.766 71.3391 72.6046 72.2169 72.8523 73.0252L77.3844 89.1718H77.3832C80.4681 87.118 84.1269 86.1001 87.8294 86.2649L99.3596 86.8243C102.032 86.9274 104.646 87.6314 107.009 88.8848L126.478 74.8762C128.862 73.1644 131.827 72.4648 134.726 72.9312C137.624 73.3975 140.22 74.9906 141.948 77.3638C143.872 79.9893 144.529 83.3346 143.739 86.4926C146.979 86.7404 149.944 88.4063 151.84 91.0452C153.735 93.6841 154.367 97.026 153.567 100.175C156.622 100.352 159.458 101.822 161.364 104.216C163.271 106.611 164.068 109.704 163.557 112.722C163.23 114.648 162.413 116.457 161.184 117.976C163.722 118.892 165.837 120.704 167.132 123.07C168.427 125.438 168.811 128.197 168.213 130.827C167.614 133.458 166.075 135.78 163.883 137.354L148.534 148.411C147.571 149.104 146.504 149.639 145.371 149.993C142.352 152.843 139.503 155.299 136.825 157.413L159.918 167.533C160.69 167.808 161.548 167.702 162.229 167.247C162.95 166.792 163.406 166.017 163.453 165.165L164.552 145.991H164.551C164.656 144.395 165.231 142.865 166.202 141.592C167.174 140.321 168.499 139.364 170.012 138.842L188.177 132.715Z" fill="#2ABB75"/>
<path d="M93.5127 183.197C94.1057 183.786 95.063 183.786 95.6548 183.197L98.6355 180.22V180.207L98.6367 180.208C98.9191 179.928 99.0783 179.547 99.0783 179.149C99.0783 178.751 98.9191 178.369 98.6367 178.089L56.9836 136.536C56.3738 135.944 55.4008 135.95 54.7978 136.549L51.8518 139.496C51.2689 140.092 51.2689 141.044 51.8518 141.639C52.3685 142.137 52.6645 142.823 52.6723 143.541C52.679 144.259 52.3977 144.951 51.8899 145.46C51.3832 145.969 50.6927 146.252 49.9742 146.247C49.2556 146.241 48.5696 145.947 48.0696 145.432C47.4654 144.843 46.5026 144.843 45.8972 145.432L42.9512 148.408C42.6564 148.686 42.4894 149.074 42.4883 149.479C42.4872 149.889 42.6531 150.282 42.9457 150.569L84.0219 191.552L84.5812 192.109H84.5824C85.1888 192.705 86.1618 192.705 86.7682 192.109L89.7142 189.149V189.148C90.3072 188.547 90.3072 187.581 89.7142 186.979C88.7749 185.912 88.8331 184.296 89.8476 183.3C90.8609 182.303 92.4774 182.272 93.5276 183.229L93.5127 183.197ZM86.0774 179.557C85.0316 180.602 83.3367 180.602 82.2909 179.557L55.5078 152.846H55.5067C54.4922 151.795 54.5068 150.124 55.5392 149.091C56.5728 148.058 58.243 148.044 59.2945 149.058L86.0775 175.768V175.77C87.1234 176.816 87.1234 178.511 86.0775 179.556L86.0774 179.557Z" fill="#2ABB75"/>
<path d="M133.025 145.91C131.3 143.536 130.597 140.569 131.072 137.674C131.101 137.494 131.171 137.334 131.205 137.159C127.853 137.056 124.733 135.418 122.746 132.715C121.379 130.81 120.674 128.508 120.739 126.164C119.813 126.432 118.856 126.579 117.892 126.6L118.096 129.691C118.307 133.639 116.501 137.424 113.299 139.743C110.099 142.063 105.94 142.6 102.255 141.17C98.5699 139.74 95.8607 136.538 95.0615 132.667L90.5082 110.22H90.5093C90.2526 108.789 91.1842 107.414 92.6089 107.124C94.0336 106.832 95.4303 107.731 95.7555 109.15L100.322 131.601C100.628 133.128 101.489 134.488 102.738 135.417C103.988 136.346 105.537 136.78 107.088 136.634C108.71 136.493 110.215 135.724 111.276 134.489C112.339 133.253 112.876 131.651 112.772 130.026L112.324 123.758V123.619L111.291 107.9V107.858L111.023 103.776H111.022C110.785 100.001 108.828 96.5452 105.714 94.4005C103.769 93.0497 101.478 92.2851 99.1116 92.1954L87.5736 91.636C84.3217 91.4981 81.1481 92.6606 78.756 94.8681C76.3639 97.0755 74.9503 100.145 74.8271 103.398L73.6759 121.88C73.4876 125.123 72.1144 128.185 69.8165 130.481L64.1602 136.122L99.0408 170.914L101.285 168.675C103.528 166.414 106.522 165.055 109.701 164.855C114.147 164.614 123.431 162.198 137.81 149.607V149.606C135.899 148.847 134.24 147.566 133.024 145.909L133.025 145.91Z" fill="#2ABB75"/>
<path d="M152.685 105.465C151.354 105.471 150.06 105.894 148.983 106.673L128.675 121.405L128.676 121.406C127.318 122.362 126.4 123.823 126.126 125.461C125.878 126.912 126.224 128.402 127.085 129.596C128.013 130.791 129.362 131.584 130.857 131.814C132.352 132.042 133.878 131.69 135.12 130.828C135.259 130.716 135.372 130.582 135.519 130.475L150.893 119.394C150.946 119.357 151.005 119.337 151.056 119.299L155.706 115.927V115.928C157.065 114.97 157.985 113.508 158.258 111.867C158.503 110.417 158.157 108.929 157.299 107.735C156.217 106.279 154.499 105.433 152.685 105.466L152.685 105.465Z" fill="#2ABB75"/>
<path d="M139.409 92.8402L116.748 109.18L117.552 121.233H117.551C118.799 121.269 120.027 120.901 121.049 120.183L146.161 102.1C146.407 101.92 146.642 101.721 146.86 101.508C147.822 100.551 148.411 99.2818 148.517 97.9286C148.624 96.5754 148.241 95.2291 147.441 94.1337C146.545 92.8994 145.198 92.0698 143.693 91.8277C142.187 91.5855 140.647 91.9488 139.409 92.84L139.409 92.8402Z" fill="#2ABB75"/>
<path d="M129.587 79.214L111.458 92.2609V92.262C114.227 95.1477 115.938 98.8886 116.308 102.872L136.288 88.4775C136.544 88.297 136.782 88.0941 137.001 87.8688C138.365 86.4977 138.943 84.5302 138.538 82.6378C138.132 80.7466 136.798 79.1893 134.991 78.4977C133.184 77.8071 131.15 78.0761 129.587 79.214L129.587 79.214Z" fill="#2ABB75"/>
<path d="M154.128 123.677L138.53 134.986C138.439 135.053 138.337 135.096 138.243 135.16C137.168 136.086 136.481 137.383 136.319 138.793C136.158 140.202 136.532 141.622 137.37 142.767C138.265 143.997 139.611 144.822 141.112 145.063C142.613 145.306 144.148 144.943 145.384 144.056L160.733 132.999C161.965 132.115 162.794 130.777 163.036 129.28C163.278 127.784 162.914 126.252 162.024 125.025C161.146 123.811 159.827 122.99 158.351 122.74C156.873 122.49 155.358 122.829 154.128 123.686L154.128 123.677Z" fill="#2ABB75"/>
</g>
<g filter="url(#filter0_b_541_10836)">
<rect width="1170" height="242" fill="url(#paint0_linear_541_10836)" fill-opacity="0.1"/>
</g>
<path d="M286.976 196V156H296.064V196H286.976ZM273.472 157.28V149.28H309.568V157.28H273.472ZM337.4 197.216C333.176 197.216 329.506 196.469 326.392 194.976C323.32 193.483 320.76 191.541 318.712 189.152C316.706 186.72 315.192 184.117 314.168 181.344C313.186 178.528 312.696 175.819 312.696 173.216V171.808C312.696 168.949 313.208 166.112 314.232 163.296C315.256 160.437 316.792 157.856 318.84 155.552C320.93 153.248 323.512 151.413 326.583 150.048C329.656 148.64 333.261 147.936 337.4 147.936C341.496 147.936 345.08 148.64 348.152 150.048C351.224 151.413 353.784 153.248 355.832 155.552C357.922 157.856 359.48 160.437 360.504 163.296C361.528 166.112 362.04 168.949 362.04 171.808V173.216C362.04 175.819 361.528 178.528 360.504 181.344C359.522 184.117 358.008 186.72 355.96 189.152C353.954 191.541 351.394 193.483 348.28 194.976C345.208 196.469 341.581 197.216 337.4 197.216ZM337.4 188.768C339.789 188.768 341.922 188.341 343.8 187.488C345.72 186.635 347.341 185.461 348.664 183.968C350.029 182.432 351.053 180.704 351.736 178.784C352.461 176.821 352.824 174.752 352.824 172.576C352.824 170.229 352.461 168.075 351.736 166.112C351.053 164.149 350.029 162.443 348.664 160.992C347.341 159.541 345.72 158.411 343.8 157.6C341.88 156.789 339.746 156.384 337.4 156.384C335.01 156.384 332.856 156.789 330.936 157.6C329.016 158.411 327.373 159.541 326.008 160.992C324.685 162.443 323.661 164.149 322.936 166.112C322.253 168.075 321.912 170.229 321.912 172.576C321.912 174.752 322.253 176.821 322.936 178.784C323.661 180.704 324.685 182.432 326.008 183.968C327.373 185.461 329.016 186.635 330.936 187.488C332.856 188.341 335.01 188.768 337.4 188.768ZM378.631 181.664V173.792H387.719C389.553 173.792 391.089 173.429 392.327 172.704C393.607 171.979 394.567 170.976 395.207 169.696C395.889 168.416 396.231 166.944 396.231 165.28C396.231 163.616 395.889 162.144 395.207 160.864C394.567 159.584 393.607 158.603 392.327 157.92C391.089 157.195 389.553 156.832 387.719 156.832H378.631V148.96H386.951C390.876 148.96 394.204 149.6 396.935 150.88C399.708 152.16 401.82 153.995 403.271 156.384C404.721 158.731 405.447 161.525 405.447 164.768V165.792C405.447 169.035 404.721 171.851 403.271 174.24C401.82 176.587 399.708 178.421 396.935 179.744C394.204 181.024 390.876 181.664 386.951 181.664H378.631ZM370.823 196V148.96H379.911V196H370.823ZM434.568 196.256V187.808H444.232C446.664 187.808 448.819 187.445 450.696 186.72C452.616 185.952 454.237 184.885 455.56 183.52C456.883 182.155 457.885 180.555 458.568 178.72C459.293 176.843 459.656 174.773 459.656 172.512C459.656 170.165 459.293 168.075 458.568 166.24C457.885 164.363 456.883 162.763 455.56 161.44C454.237 160.117 452.616 159.115 450.696 158.432C448.819 157.749 446.664 157.408 444.232 157.408H434.568V148.96H443.656C447.88 148.96 451.571 149.579 454.728 150.816C457.885 152.053 460.509 153.76 462.6 155.936C464.691 158.069 466.248 160.523 467.272 163.296C468.339 166.027 468.872 168.864 468.872 171.808V173.216C468.872 176.032 468.339 178.805 467.272 181.536C466.248 184.267 464.691 186.741 462.6 188.96C460.509 191.179 457.885 192.949 454.728 194.272C451.571 195.595 447.88 196.256 443.656 196.256H434.568ZM426.76 196.256V148.96H435.848V196.256H426.76ZM477.01 196V149.28H486.098V196H477.01ZM484.818 176.544V168.864L503.506 168.8V176.48L484.818 176.544ZM484.818 156.96V149.28H504.402V156.96H484.818ZM533.691 197.216C529.467 197.216 525.84 196.469 522.811 194.976C519.782 193.483 517.307 191.541 515.387 189.152C513.51 186.763 512.123 184.16 511.227 181.344C510.331 178.528 509.883 175.819 509.883 173.216V171.808C509.883 168.907 510.331 166.048 511.227 163.232C512.166 160.416 513.595 157.856 515.515 155.552C517.435 153.248 519.867 151.413 522.811 150.048C525.798 148.64 529.318 147.936 533.371 147.936C537.595 147.936 541.264 148.704 544.379 150.24C547.536 151.733 550.054 153.867 551.931 156.64C553.808 159.371 554.939 162.571 555.323 166.24H546.171C545.83 164.107 545.062 162.315 543.867 160.864C542.715 159.371 541.243 158.261 539.451 157.536C537.659 156.768 535.632 156.384 533.371 156.384C531.067 156.384 529.019 156.789 527.227 157.6C525.435 158.368 523.942 159.477 522.747 160.928C521.552 162.379 520.635 164.085 519.995 166.048C519.398 168.011 519.099 170.187 519.099 172.576C519.099 174.88 519.398 177.013 519.995 178.976C520.635 180.939 521.574 182.667 522.811 184.16C524.048 185.611 525.563 186.741 527.355 187.552C529.19 188.363 531.302 188.768 533.691 188.768C537.19 188.768 540.134 187.915 542.523 186.208C544.955 184.459 546.427 182.027 546.939 178.912H556.091C555.664 182.24 554.534 185.291 552.699 188.064C550.864 190.837 548.347 193.056 545.147 194.72C541.947 196.384 538.128 197.216 533.691 197.216ZM577.573 196V149.28H586.661V196H577.573ZM585.381 176.544V168.864L604.069 168.8V176.48L585.381 176.544ZM585.381 156.96V149.28H604.965V156.96H585.381ZM613.513 196V149.28H622.601V196H613.513ZM656.02 197.216C652.009 197.216 648.468 196.555 645.396 195.232C642.367 193.867 639.807 192.053 637.716 189.792C635.668 187.488 634.111 184.907 633.044 182.048C632.02 179.147 631.508 176.139 631.508 173.024V171.616C631.508 168.672 632.02 165.792 633.044 162.976C634.068 160.16 635.561 157.621 637.524 155.36C639.529 153.099 641.983 151.307 644.884 149.984C647.828 148.619 651.199 147.936 654.996 147.936C659.092 147.936 662.719 148.704 665.876 150.24C669.033 151.733 671.572 153.845 673.492 156.576C675.412 159.264 676.543 162.4 676.884 165.984H667.732C667.433 163.979 666.687 162.272 665.492 160.864C664.297 159.413 662.783 158.304 660.948 157.536C659.156 156.768 657.172 156.384 654.996 156.384C652.82 156.384 650.836 156.768 649.044 157.536C647.295 158.304 645.801 159.392 644.564 160.8C643.327 162.208 642.367 163.893 641.684 165.856C641.044 167.819 640.724 169.995 640.724 172.384C640.724 174.987 641.087 177.312 641.812 179.36C642.537 181.408 643.561 183.157 644.884 184.608C646.207 186.016 647.807 187.104 649.684 187.872C651.561 188.597 653.673 188.96 656.02 188.96C659.135 188.96 661.865 188.32 664.212 187.04C666.559 185.717 668.265 184.011 669.332 181.92L667.732 189.28V177.248H676.116V187.616C674.111 190.645 671.38 193.013 667.924 194.72C664.468 196.384 660.5 197.216 656.02 197.216ZM654.548 179.04V172.256H680.02V179.04H654.548ZM718.166 196V149.28H727.254V196H718.166ZM687.51 196V149.28H696.598V196H687.51ZM694.934 176.608V168.608H719.83V176.608H694.934ZM747.976 196V156H757.064V196H747.976ZM734.472 157.28V149.28H770.568V157.28H734.472ZM777.823 196V149.28H786.719V196H777.823ZM785.439 196V188.32H806.623V196H785.439ZM785.439 176.096V168.416H804.958V176.096H785.439ZM785.439 156.96V149.28H806.111V156.96H785.439ZM815.948 196V148.96H825.036V196H815.948ZM844.492 196L830.156 175.648H840.332L855.116 196H844.492ZM822.348 180.384V173.024H834.252C835.916 173.024 837.345 172.683 838.54 172C839.777 171.317 840.737 170.357 841.42 169.12C842.102 167.883 842.444 166.475 842.444 164.896C842.444 163.275 842.102 161.845 841.42 160.608C840.737 159.371 839.777 158.411 838.54 157.728C837.345 157.045 835.916 156.704 834.252 156.704H822.348V148.96H833.292C837.046 148.96 840.289 149.515 843.02 150.624C845.793 151.733 847.926 153.419 849.42 155.68C850.913 157.941 851.66 160.779 851.66 164.192V165.216C851.66 168.672 850.892 171.509 849.356 173.728C847.862 175.947 845.75 177.611 843.02 178.72C840.289 179.829 837.046 180.384 833.292 180.384H822.348ZM877.571 197.216C873.432 197.216 869.934 196.555 867.075 195.232C864.259 193.909 862.104 192.096 860.611 189.792C859.118 187.445 858.371 184.8 858.371 181.856H867.267C867.267 183.093 867.608 184.309 868.291 185.504C868.974 186.656 870.062 187.595 871.555 188.32C873.091 189.045 875.096 189.408 877.571 189.408C879.79 189.408 881.646 189.088 883.139 188.448C884.632 187.808 885.742 186.976 886.467 185.952C887.192 184.885 887.555 183.691 887.555 182.368C887.555 180.704 886.851 179.381 885.443 178.4C884.035 177.376 881.859 176.736 878.915 176.48L874.819 176.16C870.339 175.776 866.755 174.389 864.067 172C861.422 169.568 860.099 166.368 860.099 162.4C860.099 159.413 860.803 156.853 862.211 154.72C863.619 152.544 865.582 150.88 868.099 149.728C870.659 148.533 873.646 147.936 877.059 147.936C880.6 147.936 883.651 148.555 886.211 149.792C888.771 151.029 890.755 152.779 892.163 155.04C893.571 157.259 894.275 159.883 894.275 162.912H885.379C885.379 161.632 885.059 160.459 884.419 159.392C883.822 158.283 882.904 157.408 881.667 156.768C880.472 156.085 878.936 155.744 877.059 155.744C875.267 155.744 873.774 156.043 872.579 156.64C871.384 157.237 870.488 158.048 869.891 159.072C869.294 160.096 868.995 161.205 868.995 162.4C868.995 163.851 869.528 165.131 870.595 166.24C871.662 167.307 873.347 167.925 875.651 168.096L879.747 168.48C883.075 168.736 885.998 169.44 888.515 170.592C891.032 171.744 892.974 173.301 894.339 175.264C895.747 177.227 896.451 179.595 896.451 182.368C896.451 185.312 895.683 187.915 894.147 190.176C892.611 192.395 890.414 194.123 887.555 195.36C884.739 196.597 881.411 197.216 877.571 197.216Z" fill="white"/>
<g clip-path="url(#clip0_541_10836)">
<path d="M647.615 119.841H556V122.11H647.615V119.841Z" fill="#DF2151"/>
<path d="M567.621 102.98H579.099V51.3681H564.698L567.621 53.5569V102.982V102.98ZM588.939 47.2008V107.147C588.939 111.101 585.802 114.137 581.809 114.137H557.782V102.981V42.4014L556 40.2126H581.809C585.73 40.2126 588.939 43.4603 588.939 47.2027L588.939 47.2008ZM593.287 42.1888L591.505 40H619.524V51.1558H600.203L603.126 53.3446V71.4198H614.605V82.5755H600.203L603.126 84.7644V113.925H593.287V42.1887L593.287 42.1888ZM628.508 40.1396H647.615V51.2954H628.294L631.217 53.4136C630.932 65.8404 630.932 90.5521 631.217 102.908H647.615V114.064H628.508C624.515 114.064 621.449 111.028 621.449 107.073V47.1275C621.449 43.1736 624.515 40.1374 628.508 40.1374V40.1396Z" fill="white"/>
<path d="M675.45 68.4087H681.652C683.769 68.4087 685.183 68.8882 685.894 69.8476C686.612 70.783 686.703 72.234 686.169 74.2007L685.896 75.208C685.544 76.503 685.033 77.5584 684.363 78.3739C683.718 79.1893 682.899 79.7769 681.904 80.1367L681.885 80.2087C683.745 80.8801 684.291 82.631 683.522 85.461L682.936 87.6196C682.408 89.5623 681.469 91.0493 680.117 92.0806C678.798 93.0879 677.117 93.5914 675.074 93.5914H668.61L675.45 68.4087ZM678.382 78.6617C679.204 78.6617 679.869 78.4578 680.379 78.05C680.913 77.6423 681.31 76.9589 681.571 75.9995L681.952 74.5963C682.199 73.685 682.204 73.0255 681.966 72.6177C681.753 72.2099 681.285 72.0063 680.563 72.0063H678.583L676.775 78.6617H678.382ZM676.051 89.9939C676.774 89.9939 677.358 89.814 677.804 89.4544C678.257 89.0706 678.607 88.423 678.855 87.5117L679.451 85.3171C679.764 84.1659 679.767 83.3744 679.461 82.9428C679.186 82.487 678.575 82.2592 677.629 82.2592H675.798L673.697 89.9939H676.051Z" fill="#DF2151"/>
<path d="M690.182 68.4087H701.391L700.414 72.0063H693.315L691.507 78.6617H697.149L696.172 82.2592H690.53L688.429 89.9939H695.528L694.551 93.5914H683.342L690.182 68.4087Z" fill="#DF2151"/>
<path d="M705.617 72.0063H701.321L702.298 68.4087H715.001L714.024 72.0063H709.727L703.865 93.5914H699.755L705.617 72.0063Z" fill="#DF2151"/>
<path d="M718.078 68.4087H723.645L721.065 93.5914H716.955L717.566 88.5909L717.546 88.6629H712.876L710.79 93.5914H706.979L718.078 68.4087ZM717.989 85.2452L719.539 72.7976H719.464L714.29 85.2452H717.989Z" fill="#DF2151"/>
</g>
<path d="M1127.73 195.999H1095.19C1094.59 195.997 1094.01 195.756 1093.59 195.328L1091.69 193.429L1128.65 156.553L1129.33 157.228H1129.33C1129.76 157.653 1130 158.231 1130 158.835V193.75C1130 194.35 1129.76 194.924 1129.33 195.345C1128.9 195.768 1128.33 196.003 1127.73 196L1127.73 195.999Z" fill="#DF2151"/>
<path d="M981.823 132.715C981.013 132.449 980.38 131.81 980.123 130.996C979.866 130.182 980.017 129.295 980.53 128.613L991.983 113.233C992.943 111.953 993.498 110.414 993.575 108.817C993.653 107.218 993.249 105.634 992.416 104.267L982.413 87.8665C981.965 87.1401 981.894 86.2421 982.226 85.4563C982.548 84.6816 983.226 84.1132 984.044 83.9316L1002.77 79.4643C1004.32 79.0921 1005.72 78.2648 1006.8 77.0888C1007.88 75.9128 1008.58 74.442 1008.82 72.8635L1011.71 53.875C1011.84 53.0264 1012.37 52.291 1013.13 51.8975C1013.9 51.504 1014.8 51.5007 1015.57 51.8874L1032.71 60.5017L1032.71 60.5028C1034.13 61.2214 1035.74 61.4938 1037.32 61.2865C1038.9 61.0791 1040.39 60.3997 1041.58 59.3369L1055.99 46.6723C1056.63 46.1006 1057.51 45.8753 1058.35 46.067C1059.18 46.2531 1059.86 46.8293 1060.19 47.6129L1067.83 65.2539C1068.45 66.6855 1069.47 67.9052 1070.78 68.7618C1072.08 69.6183 1073.61 70.0745 1075.17 70.0757H1075.35L1094.55 69.6205C1095.39 69.6519 1096.17 70.0331 1096.72 70.6698C1097.23 71.3391 1097.4 72.2169 1097.15 73.0252L1092.62 89.1718H1092.62C1089.53 87.118 1085.87 86.1001 1082.17 86.2649L1070.64 86.8243C1067.97 86.9274 1065.35 87.6314 1062.99 88.8848L1043.52 74.8762C1041.14 73.1644 1038.17 72.4648 1035.27 72.9312C1032.38 73.3975 1029.78 74.9906 1028.05 77.3638C1026.13 79.9893 1025.47 83.3346 1026.26 86.4926C1023.02 86.7404 1020.06 88.4063 1018.16 91.0452C1016.26 93.6841 1015.63 97.026 1016.43 100.175C1013.38 100.352 1010.54 101.822 1008.64 104.216C1006.73 106.611 1005.93 109.704 1006.44 112.722C1006.77 114.648 1007.59 116.457 1008.82 117.976C1006.28 118.892 1004.16 120.704 1002.87 123.07C1001.57 125.438 1001.19 128.197 1001.79 130.827C1002.39 133.458 1003.93 135.78 1006.12 137.354L1021.47 148.411C1022.43 149.104 1023.5 149.639 1024.63 149.993C1027.65 152.843 1030.5 155.299 1033.18 157.413L1010.08 167.533C1009.31 167.808 1008.45 167.702 1007.77 167.247C1007.05 166.792 1006.59 166.017 1006.55 165.165L1005.45 145.991H1005.45C1005.34 144.395 1004.77 142.865 1003.8 141.592C1002.83 140.321 1001.5 139.364 999.988 138.842L981.823 132.715Z" fill="#DF2151"/>
<path d="M1076.49 183.197C1075.89 183.786 1074.94 183.786 1074.35 183.197L1071.36 180.22V180.207L1071.36 180.208C1071.08 179.928 1070.92 179.547 1070.92 179.149C1070.92 178.751 1071.08 178.369 1071.36 178.089L1113.02 136.536C1113.63 135.944 1114.6 135.95 1115.2 136.549L1118.15 139.496C1118.73 140.092 1118.73 141.044 1118.15 141.639C1117.63 142.137 1117.34 142.823 1117.33 143.541C1117.32 144.259 1117.6 144.951 1118.11 145.46C1118.62 145.969 1119.31 146.252 1120.03 146.247C1120.74 146.241 1121.43 145.947 1121.93 145.432C1122.53 144.843 1123.5 144.843 1124.1 145.432L1127.05 148.408C1127.34 148.686 1127.51 149.074 1127.51 149.479C1127.51 149.889 1127.35 150.282 1127.05 150.569L1085.98 191.552L1085.42 192.109H1085.42C1084.81 192.705 1083.84 192.705 1083.23 192.109L1080.29 189.149V189.148C1079.69 188.547 1079.69 187.581 1080.29 186.979C1081.23 185.912 1081.17 184.296 1080.15 183.3C1079.14 182.303 1077.52 182.272 1076.47 183.229L1076.49 183.197ZM1083.92 179.557C1084.97 180.602 1086.66 180.602 1087.71 179.557L1114.49 152.846H1114.49C1115.51 151.795 1115.49 150.124 1114.46 149.091C1113.43 148.058 1111.76 148.044 1110.71 149.058L1083.92 175.768V175.77C1082.88 176.816 1082.88 178.511 1083.92 179.556L1083.92 179.557Z" fill="#DF2151"/>
<path d="M1036.98 145.91C1038.7 143.536 1039.4 140.569 1038.93 137.674C1038.9 137.494 1038.83 137.334 1038.79 137.159C1042.15 137.056 1045.27 135.418 1047.25 132.715C1048.62 130.81 1049.33 128.508 1049.26 126.164C1050.19 126.432 1051.14 126.579 1052.11 126.6L1051.9 129.691C1051.69 133.639 1053.5 137.424 1056.7 139.743C1059.9 142.063 1064.06 142.6 1067.75 141.17C1071.43 139.74 1074.14 136.538 1074.94 132.667L1079.49 110.22H1079.49C1079.75 108.789 1078.82 107.414 1077.39 107.124C1075.97 106.832 1074.57 107.731 1074.24 109.15L1069.68 131.601C1069.37 133.128 1068.51 134.488 1067.26 135.417C1066.01 136.346 1064.46 136.78 1062.91 136.634C1061.29 136.493 1059.79 135.724 1058.72 134.489C1057.66 133.253 1057.12 131.651 1057.23 130.026L1057.68 123.758V123.619L1058.71 107.9V107.858L1058.98 103.776H1058.98C1059.21 100.001 1061.17 96.5452 1064.29 94.4005C1066.23 93.0497 1068.52 92.2851 1070.89 92.1954L1082.43 91.636C1085.68 91.4981 1088.85 92.6606 1091.24 94.8681C1093.64 97.0755 1095.05 100.145 1095.17 103.398L1096.32 121.88C1096.51 125.123 1097.89 128.185 1100.18 130.481L1105.84 136.122L1070.96 170.914L1068.72 168.675C1066.47 166.414 1063.48 165.055 1060.3 164.855C1055.85 164.614 1046.57 162.198 1032.19 149.607V149.606C1034.1 148.847 1035.76 147.566 1036.98 145.909L1036.98 145.91Z" fill="#DF2151"/>
<path d="M1017.31 105.465C1018.65 105.471 1019.94 105.894 1021.02 106.673L1041.32 121.405L1041.32 121.406C1042.68 122.362 1043.6 123.823 1043.87 125.461C1044.12 126.912 1043.78 128.402 1042.92 129.596C1041.99 130.791 1040.64 131.584 1039.14 131.814C1037.65 132.042 1036.12 131.69 1034.88 130.828C1034.74 130.716 1034.63 130.582 1034.48 130.475L1019.11 119.394C1019.05 119.357 1019 119.337 1018.94 119.299L1014.29 115.927V115.928C1012.94 114.97 1012.02 113.508 1011.74 111.867C1011.5 110.417 1011.84 108.929 1012.7 107.735C1013.78 106.279 1015.5 105.433 1017.32 105.466L1017.31 105.465Z" fill="#DF2151"/>
<path d="M1030.59 92.8402L1053.25 109.18L1052.45 121.233H1052.45C1051.2 121.269 1049.97 120.901 1048.95 120.183L1023.84 102.1C1023.59 101.92 1023.36 101.721 1023.14 101.508C1022.18 100.551 1021.59 99.2818 1021.48 97.9286C1021.38 96.5754 1021.76 95.2291 1022.56 94.1337C1023.45 92.8994 1024.8 92.0698 1026.31 91.8277C1027.81 91.5855 1029.35 91.9488 1030.59 92.84L1030.59 92.8402Z" fill="#DF2151"/>
<path d="M1040.41 79.214L1058.54 92.2609V92.262C1055.77 95.1477 1054.06 98.8886 1053.69 102.872L1033.71 88.4775C1033.46 88.297 1033.22 88.0941 1033 87.8688C1031.64 86.4977 1031.06 84.5302 1031.46 82.6378C1031.87 80.7466 1033.2 79.1893 1035.01 78.4977C1036.82 77.8071 1038.85 78.0761 1040.41 79.214L1040.41 79.214Z" fill="#DF2151"/>
<path d="M1015.87 123.677L1031.47 134.986C1031.56 135.053 1031.66 135.096 1031.76 135.16C1032.83 136.086 1033.52 137.383 1033.68 138.793C1033.84 140.202 1033.47 141.622 1032.63 142.767C1031.73 143.997 1030.39 144.822 1028.89 145.063C1027.39 145.306 1025.85 144.943 1024.62 144.056L1009.27 132.999C1008.04 132.115 1007.21 130.777 1006.96 129.28C1006.72 127.784 1007.09 126.252 1007.98 125.025C1008.85 123.811 1010.17 122.99 1011.65 122.74C1013.13 122.49 1014.64 122.829 1015.87 123.686L1015.87 123.677Z" fill="#DF2151"/>
<path d="M42.2735 195.999H74.8068C75.4099 195.997 75.9883 195.756 76.4131 195.328L78.3143 193.429L41.3474 156.553L40.6692 157.228H40.6703C40.241 157.653 40 158.231 40 158.835V193.75C40.0034 194.35 40.2444 194.924 40.6703 195.345C41.0963 195.768 41.6725 196.003 42.2722 196L42.2735 195.999Z" fill="#2ABB75"/>
<path d="M188.177 132.715C188.987 132.449 189.62 131.81 189.877 130.996C190.134 130.182 189.983 129.295 189.47 128.613L178.017 113.233C177.057 111.953 176.502 110.414 176.425 108.817C176.347 107.218 176.751 105.634 177.584 104.267L187.587 87.8665C188.035 87.1401 188.106 86.2421 187.774 85.4563C187.452 84.6816 186.774 84.1132 185.956 83.9316L167.231 79.4643C165.68 79.0921 164.277 78.2648 163.198 77.0888C162.121 75.9128 161.419 74.442 161.184 72.8635L158.288 53.875C158.159 53.0264 157.63 52.291 156.867 51.8975C156.104 51.504 155.198 51.5007 154.431 51.8874L137.29 60.5017L137.291 60.5028C135.866 61.2214 134.259 61.4938 132.677 61.2865C131.095 61.0791 129.612 60.3997 128.423 59.3369L114.013 46.6723C113.371 46.1006 112.492 45.8753 111.653 46.067C110.825 46.2531 110.138 46.8293 109.81 47.6129L102.169 65.2539C101.55 66.6855 100.525 67.9052 99.2217 68.7618C97.918 69.6183 96.3924 70.0745 94.8331 70.0757H94.6482L75.4496 69.6205C74.6122 69.6519 73.8276 70.0331 73.2828 70.6698C72.766 71.3391 72.6046 72.2169 72.8523 73.0252L77.3844 89.1718H77.3832C80.4681 87.118 84.1269 86.1001 87.8294 86.2649L99.3596 86.8243C102.032 86.9274 104.646 87.6314 107.009 88.8848L126.478 74.8762C128.862 73.1644 131.827 72.4648 134.726 72.9312C137.624 73.3975 140.22 74.9906 141.948 77.3638C143.872 79.9893 144.529 83.3346 143.739 86.4926C146.979 86.7404 149.944 88.4063 151.84 91.0452C153.735 93.6841 154.367 97.026 153.567 100.175C156.622 100.352 159.458 101.822 161.364 104.216C163.271 106.611 164.068 109.704 163.557 112.722C163.23 114.648 162.413 116.457 161.184 117.976C163.722 118.892 165.837 120.704 167.132 123.07C168.427 125.438 168.811 128.197 168.213 130.827C167.614 133.458 166.075 135.78 163.883 137.354L148.534 148.411C147.571 149.104 146.504 149.639 145.371 149.993C142.352 152.843 139.503 155.299 136.825 157.413L159.918 167.533C160.69 167.808 161.548 167.702 162.229 167.247C162.95 166.792 163.406 166.017 163.453 165.165L164.552 145.991H164.551C164.656 144.395 165.231 142.865 166.202 141.592C167.174 140.321 168.499 139.364 170.012 138.842L188.177 132.715Z" fill="#2ABB75"/>
<path d="M93.5127 183.197C94.1057 183.786 95.063 183.786 95.6548 183.197L98.6355 180.22V180.207L98.6367 180.208C98.9191 179.928 99.0783 179.547 99.0783 179.149C99.0783 178.751 98.9191 178.369 98.6367 178.089L56.9836 136.536C56.3738 135.944 55.4008 135.95 54.7978 136.549L51.8518 139.496C51.2689 140.092 51.2689 141.044 51.8518 141.639C52.3685 142.137 52.6645 142.823 52.6723 143.541C52.679 144.259 52.3977 144.951 51.8899 145.46C51.3832 145.969 50.6927 146.252 49.9742 146.247C49.2556 146.241 48.5696 145.947 48.0696 145.432C47.4654 144.843 46.5026 144.843 45.8972 145.432L42.9512 148.408C42.6564 148.686 42.4894 149.074 42.4883 149.479C42.4872 149.889 42.6531 150.282 42.9457 150.569L84.0219 191.552L84.5812 192.109H84.5824C85.1888 192.705 86.1618 192.705 86.7682 192.109L89.7142 189.149V189.148C90.3072 188.547 90.3072 187.581 89.7142 186.979C88.7749 185.912 88.8331 184.296 89.8476 183.3C90.8609 182.303 92.4774 182.272 93.5276 183.229L93.5127 183.197ZM86.0774 179.557C85.0316 180.602 83.3367 180.602 82.2909 179.557L55.5078 152.846H55.5067C54.4922 151.795 54.5068 150.124 55.5392 149.091C56.5728 148.058 58.243 148.044 59.2945 149.058L86.0775 175.768V175.77C87.1234 176.816 87.1234 178.511 86.0775 179.556L86.0774 179.557Z" fill="#2ABB75"/>
<path d="M133.025 145.91C131.3 143.536 130.597 140.569 131.072 137.674C131.101 137.494 131.171 137.334 131.205 137.159C127.853 137.056 124.733 135.418 122.746 132.715C121.379 130.81 120.674 128.508 120.739 126.164C119.813 126.432 118.856 126.579 117.892 126.6L118.096 129.691C118.307 133.639 116.501 137.424 113.299 139.743C110.099 142.063 105.94 142.6 102.255 141.17C98.5699 139.74 95.8607 136.538 95.0615 132.667L90.5082 110.22H90.5093C90.2526 108.789 91.1842 107.414 92.6089 107.124C94.0336 106.832 95.4303 107.731 95.7555 109.15L100.322 131.601C100.628 133.128 101.489 134.488 102.738 135.417C103.988 136.346 105.537 136.78 107.088 136.634C108.71 136.493 110.215 135.724 111.276 134.489C112.339 133.253 112.876 131.651 112.772 130.026L112.324 123.758V123.619L111.291 107.9V107.858L111.023 103.776H111.022C110.785 100.001 108.828 96.5452 105.714 94.4005C103.769 93.0497 101.478 92.2851 99.1116 92.1954L87.5736 91.636C84.3217 91.4981 81.1481 92.6606 78.756 94.8681C76.3639 97.0755 74.9503 100.145 74.8271 103.398L73.6759 121.88C73.4876 125.123 72.1144 128.185 69.8165 130.481L64.1602 136.122L99.0408 170.914L101.285 168.675C103.528 166.414 106.522 165.055 109.701 164.855C114.147 164.614 123.431 162.198 137.81 149.607V149.606C135.899 148.847 134.24 147.566 133.024 145.909L133.025 145.91Z" fill="#2ABB75"/>
<path d="M152.685 105.465C151.354 105.471 150.06 105.894 148.983 106.673L128.675 121.405L128.676 121.406C127.318 122.362 126.4 123.823 126.126 125.461C125.878 126.912 126.224 128.402 127.085 129.596C128.013 130.791 129.362 131.584 130.857 131.814C132.352 132.042 133.878 131.69 135.12 130.828C135.259 130.716 135.372 130.582 135.519 130.475L150.893 119.394C150.946 119.357 151.005 119.337 151.056 119.299L155.706 115.927V115.928C157.065 114.97 157.985 113.508 158.258 111.867C158.503 110.417 158.157 108.929 157.299 107.735C156.217 106.279 154.499 105.433 152.685 105.466L152.685 105.465Z" fill="#2ABB75"/>
<path d="M139.409 92.8402L116.748 109.18L117.552 121.233H117.551C118.799 121.269 120.027 120.901 121.049 120.183L146.161 102.1C146.407 101.92 146.642 101.721 146.86 101.508C147.822 100.551 148.411 99.2818 148.517 97.9286C148.624 96.5754 148.241 95.2291 147.441 94.1337C146.545 92.8994 145.198 92.0698 143.693 91.8277C142.187 91.5855 140.647 91.9488 139.409 92.84L139.409 92.8402Z" fill="#2ABB75"/>
<path d="M129.587 79.214L111.458 92.2609V92.262C114.227 95.1477 115.938 98.8886 116.308 102.872L136.288 88.4775C136.544 88.297 136.782 88.0941 137.001 87.8688C138.365 86.4977 138.943 84.5302 138.538 82.6378C138.132 80.7466 136.798 79.1893 134.991 78.4977C133.184 77.8071 131.15 78.0761 129.587 79.214L129.587 79.214Z" fill="#2ABB75"/>
<path d="M154.128 123.677L138.53 134.986C138.439 135.053 138.337 135.096 138.243 135.16C137.168 136.086 136.481 137.383 136.319 138.793C136.158 140.202 136.532 141.622 137.37 142.767C138.265 143.997 139.611 144.822 141.112 145.063C142.613 145.306 144.148 144.943 145.384 144.056L160.733 132.999C161.965 132.115 162.794 130.777 163.036 129.28C163.278 127.784 162.914 126.252 162.024 125.025C161.146 123.811 159.827 122.99 158.351 122.74C156.873 122.49 155.358 122.829 154.128 123.686L154.128 123.677Z" fill="#2ABB75"/>
<defs>
<filter id="filter0_b_541_10836" x="-40" y="-40" width="1250" height="322" filterUnits="userSpaceOnUse" color-interpolation-filters="sRGB">
<feFlood flood-opacity="0" result="BackgroundImageFix"/>
<feGaussianBlur in="BackgroundImage" stdDeviation="20"/>
<feComposite in2="SourceAlpha" operator="in" result="effect1_backgroundBlur_541_10836"/>
<feBlend mode="normal" in="SourceGraphic" in2="effect1_backgroundBlur_541_10836" result="shape"/>
</filter>
<linearGradient id="paint0_linear_541_10836" x1="0" y1="0" x2="1092.58" y2="471.025" gradientUnits="userSpaceOnUse">
<stop stop-color="#CCCCCC"/>
<stop offset="1" stop-color="#CCCCCC" stop-opacity="0.5"/>
</linearGradient>
<clipPath id="clip0_541_10836">
<rect width="170" height="82" fill="white" transform="translate(556 40)"/>
</clipPath>
</defs>
</svg>
