<svg width="170" height="82" viewBox="0 0 170 82" fill="none" xmlns="http://www.w3.org/2000/svg">
<g clip-path="url(#clip0_458_1435)">
<path d="M91.6149 79.8413H0V82.1095H91.6149V79.8413Z" fill="#DF2151"/>
<path d="M11.6208 62.9801H23.0995V11.3681H8.69761L11.6208 13.5569V62.9823V62.9801ZM32.9387 7.20081V67.1468C32.9387 71.1007 29.8016 74.1369 25.8092 74.1369H1.7824V62.981V2.40137L0 0.212576H25.809C29.7302 0.212576 32.9385 3.46034 32.9385 7.20271L32.9387 7.20081ZM37.2872 2.1888L35.5048 0H63.524V11.1558H44.2028L47.1261 13.3446V31.4198H58.6046V42.5755H44.2028L47.1261 44.7644V73.9252H37.2873V2.18875L37.2872 2.1888ZM72.5076 0.13964H91.6149V11.2954H72.2937L75.217 13.4136C74.9317 25.8404 74.9317 50.5521 75.217 62.9078H91.6149V74.0635H72.5076C68.515 74.0635 65.4491 71.0276 65.4491 67.0734V7.1275C65.4491 3.17362 68.5147 0.137368 72.5076 0.137368V0.13964Z" fill="white"/>
<path d="M119.45 28.4087H125.652C127.769 28.4087 129.183 28.8882 129.894 29.8476C130.612 30.783 130.703 32.234 130.169 34.2007L129.896 35.208C129.544 36.503 129.033 37.5584 128.363 38.3739C127.718 39.1893 126.898 39.7769 125.904 40.1367L125.885 40.2087C127.745 40.8801 128.29 42.631 127.522 45.461L126.935 47.6196C126.408 49.5623 125.468 51.0493 124.117 52.0806C122.798 53.0879 121.116 53.5914 119.074 53.5914H112.61L119.45 28.4087ZM122.382 38.6617C123.204 38.6617 123.869 38.4578 124.379 38.05C124.913 37.6423 125.31 36.9589 125.571 35.9995L125.952 34.5963C126.199 33.685 126.204 33.0255 125.966 32.6177C125.753 32.2099 125.285 32.0063 124.563 32.0063H122.583L120.775 38.6617H122.382ZM120.051 49.9939C120.773 49.9939 121.358 49.814 121.804 49.4544C122.257 49.0706 122.607 48.423 122.855 47.5117L123.451 45.3171C123.764 44.1659 123.767 43.3744 123.461 42.9428C123.186 42.487 122.575 42.2592 121.629 42.2592H119.798L117.697 49.9939H120.051Z" fill="#DF2151"/>
<path d="M134.182 28.4087H145.391L144.414 32.0063H137.315L135.507 38.6617H141.149L140.172 42.2592H134.53L132.429 49.9939H139.528L138.551 53.5914H127.342L134.182 28.4087Z" fill="#DF2151"/>
<path d="M149.617 32.0063H145.321L146.298 28.4087H159.001L158.024 32.0063H153.727L147.865 53.5914H143.755L149.617 32.0063Z" fill="#DF2151"/>
<path d="M162.078 28.4087H167.645L165.065 53.5914H160.955L161.566 48.5909L161.547 48.6629H156.876L154.79 53.5914H150.979L162.078 28.4087ZM161.989 45.2452L163.539 32.7976H163.464L158.29 45.2452H161.989Z" fill="#DF2151"/>
</g>
<defs>
<clipPath id="clip0_458_1435">
<rect width="170" height="82" fill="white"/>
</clipPath>
</defs>
</svg>
