<svg width="728" height="223" viewBox="0 0 728 223" fill="none" xmlns="http://www.w3.org/2000/svg">
<path opacity="0.05" d="M0.920001 217V6.75999H41.816V217H0.920001ZM36.056 217V181H126.776V217H36.056ZM254.954 222.472C235.946 222.472 219.434 219.112 205.418 212.392C191.594 205.672 180.074 196.936 170.858 186.184C161.834 175.24 155.018 163.528 150.41 151.048C145.994 138.376 143.786 126.184 143.786 114.472V108.136C143.786 95.272 146.09 82.504 150.698 69.832C155.306 56.968 162.218 45.352 171.434 34.984C180.842 24.616 192.458 16.36 206.282 10.216C220.106 3.87999 236.33 0.711987 254.954 0.711987C273.386 0.711987 289.514 3.87999 303.338 10.216C317.162 16.36 328.682 24.616 337.898 34.984C347.306 45.352 354.314 56.968 358.922 69.832C363.53 82.504 365.834 95.272 365.834 108.136V114.472C365.834 126.184 363.53 138.376 358.922 151.048C354.506 163.528 347.69 175.24 338.474 186.184C329.45 196.936 317.93 205.672 303.914 212.392C290.09 219.112 273.77 222.472 254.954 222.472ZM254.954 184.456C265.706 184.456 275.306 182.536 283.754 178.696C292.394 174.856 299.69 169.576 305.642 162.856C311.786 155.944 316.394 148.168 319.466 139.528C322.73 130.696 324.362 121.384 324.362 111.592C324.362 101.032 322.73 91.336 319.466 82.504C316.394 73.672 311.786 65.992 305.642 59.464C299.69 52.936 292.394 47.848 283.754 44.2C275.114 40.552 265.514 38.728 254.954 38.728C244.202 38.728 234.506 40.552 225.866 44.2C217.226 47.848 209.834 52.936 203.69 59.464C197.738 65.992 193.13 73.672 189.866 82.504C186.794 91.336 185.258 101.032 185.258 111.592C185.258 121.384 186.794 130.696 189.866 139.528C193.13 148.168 197.738 155.944 203.69 162.856C209.834 169.576 217.226 174.856 225.866 178.696C234.506 182.536 244.202 184.456 254.954 184.456ZM475.945 222.472C457.321 222.472 441.577 219.496 428.713 213.544C416.041 207.592 406.345 199.432 399.625 189.064C392.905 178.504 389.545 166.6 389.545 153.352H429.577C429.577 158.92 431.113 164.392 434.185 169.768C437.257 174.952 442.153 179.176 448.873 182.44C455.785 185.704 464.809 187.336 475.945 187.336C485.929 187.336 494.281 185.896 501.001 183.016C507.721 180.136 512.713 176.392 515.977 171.784C519.241 166.984 520.873 161.608 520.873 155.656C520.873 148.168 517.705 142.216 511.369 137.8C505.033 133.192 495.241 130.312 481.993 129.16L463.561 127.72C443.401 125.992 427.273 119.752 415.177 109C403.273 98.056 397.32 83.656 397.32 65.8C397.32 52.36 400.489 40.84 406.825 31.24C413.161 21.448 421.993 13.96 433.321 8.77599C444.841 3.39999 458.281 0.711987 473.641 0.711987C489.577 0.711987 503.305 3.49599 514.825 9.06398C526.345 14.632 535.273 22.504 541.609 32.68C547.945 42.664 551.113 54.472 551.113 68.104H511.081C511.081 62.344 509.641 57.064 506.761 52.264C504.073 47.272 499.945 43.336 494.377 40.456C489.001 37.384 482.089 35.848 473.641 35.848C465.577 35.848 458.857 37.192 453.481 39.88C448.105 42.568 444.073 46.216 441.385 50.824C438.697 55.432 437.353 60.424 437.353 65.8C437.353 72.328 439.753 78.088 444.553 83.08C449.353 87.88 456.937 90.664 467.305 91.432L485.737 93.16C500.713 94.312 513.865 97.48 525.193 102.664C536.521 107.848 545.257 114.856 551.401 123.688C557.737 132.52 560.905 143.176 560.905 155.656C560.905 168.904 557.449 180.616 550.537 190.792C543.625 200.776 533.737 208.552 520.873 214.12C508.201 219.688 493.225 222.472 475.945 222.472ZM598.295 217V6.75999H638.327V217H598.295ZM632.567 217V182.44H727.895V217H632.567ZM632.567 127.432V92.872H720.407V127.432H632.567ZM632.567 41.32V6.75999H725.591V41.32H632.567Z" fill="white"/>
</svg>
