<svg width="22" height="20" viewBox="0 0 22 20" fill="none" xmlns="http://www.w3.org/2000/svg">
<path d="M12.8254 0.268345L14.4945 1.15713C14.5589 1.19284 14.6328 1.20825 14.708 1.20388L17.1592 1.03486C17.9279 0.986059 18.478 1.20183 18.8826 1.68962C19.2869 2.17767 19.5506 2.994 19.5506 4.18356C19.5506 4.88684 19.6109 5.33867 19.8247 5.73276C20.0404 6.12885 20.3486 6.39935 20.7957 6.88175C21.3797 7.50773 21.5266 7.70859 21.6122 8.95491L21.9364 13.7576C21.9867 14.467 22.0369 14.9833 21.9617 15.429C21.8862 15.8718 21.704 16.2792 21.2015 16.8417L18.8341 19.4903C18.1621 20.2424 17.1193 19.9763 16.3153 19.8466L11.7717 19.1158C11.2693 19.0344 10.9447 18.8358 10.733 18.5802C10.5195 18.3264 10.4007 17.9969 10.4022 17.6085C10.4105 16.3959 10.8902 16.6437 11.7806 16.6453C12.5737 16.6473 13.3483 16.5243 13.8845 16.0704C14.4685 15.5798 14.3971 15.474 14.902 15.9595C15.4186 16.4562 16.1663 16.6453 16.9348 16.6453C17.7035 16.6453 18.4258 16.4285 18.9676 15.9595C19.5102 15.4902 19.8431 14.7634 19.8431 13.8768L19.6084 7.89481C19.6422 7.31788 19.0037 7.31788 19.0368 7.89481V13.8768C19.0368 14.5657 18.8092 15.0196 18.4447 15.3345C18.0821 15.6499 17.5544 15.823 16.9349 15.823C16.3153 15.823 15.7876 15.6497 15.4234 15.3345C15.0608 15.0193 14.8493 14.5657 14.8344 13.8768L14.6572 6.19884C14.6401 5.53152 14.0268 5.77038 14.0268 6.19884V13.8768C14.0268 14.4614 13.8234 15.1133 13.428 15.3964C13.0449 15.6733 12.4569 15.823 11.7806 15.823C11.1037 15.823 10.52 15.6686 10.1344 15.3964C9.7473 15.1236 9.53986 14.7634 9.53153 14.1775L9.4061 6.47397C9.39601 5.80403 8.72749 6.04346 8.72749 6.47397V14.1775C8.72749 14.7635 8.50995 15.1236 8.1246 15.3964C7.74 15.6689 7.15352 15.823 6.47717 15.823C5.80263 15.823 5.21686 15.6686 4.83149 15.3964C4.44386 15.1236 4.23061 14.7634 4.23061 14.1775L4.23086 7.76461C4.23768 7.2126 3.56311 7.2126 3.56763 7.76461L3.4253 13.5845C3.4253 14.2837 2.39291 14.4904 1.69182 14.4904C1.22267 14.4904 0.831278 14.2736 0.519365 13.8367C0.209462 13.3992 0 12.7367 0 11.9202V6.78025C0 5.9557 0.115332 5.3212 0.34574 4.90745C0.574131 4.49415 0.890088 4.25937 1.48692 4.16406L3.56791 3.83604C3.66835 3.82088 3.76047 3.76489 3.82305 3.68474L5.34527 1.72844C5.61984 1.37422 6.29367 1.14817 6.8403 1.22343L8.89402 1.50033C8.98815 1.51266 9.08506 1.49186 9.16406 1.44048L11.0043 0.245263C11.5928 -0.138752 12.2774 -0.0257331 12.8253 0.268381L12.8254 0.268345Z" fill="white"/>
</svg>
