<svg width="384" height="223" viewBox="0 0 384 223" fill="none" xmlns="http://www.w3.org/2000/svg">
<path opacity="0.05" d="M67.152 217L0.0480005 6.75999H42.384L97.968 188.776L85.872 183.016H116.976L104.592 188.776L155.856 6.75999H196.752L134.544 217H67.152ZM298.632 222.472C280.008 222.472 264.264 219.496 251.4 213.544C238.728 207.592 229.032 199.432 222.312 189.064C215.592 178.504 212.232 166.6 212.232 153.352H252.264C252.264 158.92 253.8 164.392 256.872 169.768C259.944 174.952 264.84 179.176 271.56 182.44C278.472 185.704 287.496 187.336 298.632 187.336C308.616 187.336 316.968 185.896 323.688 183.016C330.408 180.136 335.4 176.392 338.664 171.784C341.928 166.984 343.56 161.608 343.56 155.656C343.56 148.168 340.392 142.216 334.056 137.8C327.72 133.192 317.928 130.312 304.68 129.16L286.248 127.72C266.088 125.992 249.96 119.752 237.864 109C225.96 98.056 220.008 83.656 220.008 65.8C220.008 52.36 223.176 40.84 229.512 31.24C235.848 21.448 244.68 13.96 256.008 8.77599C267.528 3.39999 280.968 0.711987 296.328 0.711987C312.264 0.711987 325.992 3.49599 337.512 9.06398C349.032 14.632 357.96 22.504 364.296 32.68C370.632 42.664 373.8 54.472 373.8 68.104H333.768C333.768 62.344 332.328 57.064 329.448 52.264C326.76 47.272 322.632 43.336 317.064 40.456C311.688 37.384 304.776 35.848 296.328 35.848C288.264 35.848 281.544 37.192 276.168 39.88C270.792 42.568 266.76 46.216 264.072 50.824C261.384 55.432 260.04 60.424 260.04 65.8C260.04 72.328 262.44 78.088 267.24 83.08C272.04 87.88 279.624 90.664 289.992 91.432L308.424 93.16C323.4 94.312 336.552 97.48 347.88 102.664C359.208 107.848 367.944 114.856 374.088 123.688C380.424 132.52 383.592 143.176 383.592 155.656C383.592 168.904 380.136 180.616 373.224 190.792C366.312 200.776 356.424 208.552 343.56 214.12C330.888 219.688 315.912 222.472 298.632 222.472Z" fill="white"/>
</svg>
