<svg width="618" height="211" viewBox="0 0 618 211" fill="none" xmlns="http://www.w3.org/2000/svg">
<path opacity="0.05" d="M54.48 211L0.912 0.759995H43.248L86.736 183.64L75.504 177.016H104.304L91.632 183.64L125.904 8.82399H161.04L118.416 211H54.48ZM180.048 211L133.68 8.82399H170.256L209.712 183.64L197.328 177.016H225.552L214.608 183.64L252.912 0.759995H292.944L245.136 211H180.048ZM326.215 211V0.759995H367.111V211H326.215ZM419.576 211V0.759995H486.68L575.096 177.016H584.6L578.84 182.2V0.759995H617.432V211H550.04L461.624 34.744H451.832L457.592 29.56V211H419.576Z" fill="white"/>
</svg>
